<svg xmlns="http://www.w3.org/2000/svg" width="18" height="18" viewBox="0 0 18 18">
  <path id="Icon_metro-earth" data-name="Icon metro-earth" d="M11.571,1.928a9,9,0,1,0,9,9,9,9,0,0,0-9-9Zm0,16.875a7.849,7.849,0,0,1-3.115-.641l4.1-4.611a.563.563,0,0,0,.142-.374V11.491a.562.562,0,0,0-.562-.562c-1.986,0-4.082-2.065-4.1-2.085a.562.562,0,0,0-.4-.165H5.383a.563.563,0,0,0-.562.563v3.375a.562.562,0,0,0,.311.5l1.939.97v3.3A7.88,7.88,0,0,1,4.454,7.553H6.508a.563.563,0,0,0,.4-.165l2.25-2.25a.563.563,0,0,0,.165-.4V3.38a7.9,7.9,0,0,1,5.7.468c-.073.062-.144.126-.212.194A3.375,3.375,0,0,0,17.193,9.8q.083,0,.167,0a13.209,13.209,0,0,1-.148,6.545.561.561,0,0,0-.015.092A7.851,7.851,0,0,1,11.571,18.8Z" transform="translate(-2.571 -1.928)"/>
</svg>
