<svg xmlns="http://www.w3.org/2000/svg" width="129.231" height="120" viewBox="0 0 129.231 120">
  <path id="Icon_ionic-ios-star" data-name="Icon ionic-ios-star" d="M126.577,44.913H84.144L71.25,6.433a4.673,4.673,0,0,0-8.769,0L49.587,44.913H6.865A4.629,4.629,0,0,0,2.25,49.529a3.392,3.392,0,0,0,.087.779,4.434,4.434,0,0,0,1.933,3.26L39.144,78.144,25.76,117.058a4.629,4.629,0,0,0,1.587,5.192,4.464,4.464,0,0,0,2.6,1.125,5.655,5.655,0,0,0,2.885-1.038l34.038-24.26,34.038,24.26a5.405,5.405,0,0,0,2.885,1.038,4.144,4.144,0,0,0,2.567-1.125,4.572,4.572,0,0,0,1.587-5.192L94.558,78.144l34.587-24.808.837-.721a4.839,4.839,0,0,0,1.5-3.087A4.885,4.885,0,0,0,126.577,44.913Z" transform="translate(-2.25 -3.375)" fill="#ffd800"/>
</svg>
